<svg width="85" height="24" viewBox="0 0 85 24" fill="none" xmlns="http://www.w3.org/2000/svg">
<path d="M7.744 1.92H0V0H17.6V1.92H9.856V22.656H7.744V1.92ZM36.5 8H38.42V22.784H36.5V8ZM77.824 7.488C78.9547 7.488 79.952 7.68533 80.816 8.08C81.68 8.47467 82.4053 8.99733 82.992 9.648C83.5787 10.2987 84.0213 11.04 84.32 11.872C84.6187 12.704 84.768 13.5467 84.768 14.4V15.744H72.352C72.352 16.1493 72.432 16.6667 72.592 17.296C72.752 17.9253 73.0453 18.5387 73.472 19.136C73.8987 19.7333 74.4693 20.2453 75.184 20.672C75.8987 21.0987 76.8213 21.312 77.952 21.312C78.9333 21.312 79.8827 21.0773 80.8 20.608C81.7173 20.1387 82.4213 19.4987 82.912 18.688L84.32 19.872C83.5733 21.0027 82.6507 21.8133 81.552 22.304C80.4533 22.7947 79.2427 23.04 77.92 23.04C76.7893 23.04 75.7653 22.848 74.848 22.464C73.9307 22.08 73.1413 21.5413 72.48 20.848C71.8187 20.1547 71.312 19.3333 70.96 18.384C70.608 17.4347 70.432 16.384 70.432 15.232C70.432 14.1227 70.6133 13.0987 70.976 12.16C71.3387 11.2213 71.8507 10.4053 72.512 9.712C73.1733 9.01866 73.952 8.47467 74.848 8.08C75.744 7.68533 76.736 7.488 77.824 7.488ZM60.432 7.488C61.584 7.488 62.5227 7.66933 63.248 8.032C63.9733 8.39467 64.544 8.86933 64.96 9.456C65.376 10.0427 65.664 10.72 65.824 11.488C65.984 12.256 66.064 13.0453 66.064 13.856V22.656H64.144V13.952C64.144 13.3547 64.0907 12.7733 63.984 12.208C63.8773 11.6427 63.6907 11.136 63.424 10.688C63.1573 10.24 62.784 9.88267 62.304 9.616C61.824 9.34933 61.2 9.216 60.432 9.216C59.536 9.216 58.8 9.38133 58.224 9.712C57.648 10.0427 57.1947 10.464 56.864 10.976C56.5333 11.488 56.2987 12.0427 56.16 12.64C56.0213 13.2373 55.952 13.8027 55.952 14.336V22.656H54.032V13.76C54.032 12.3947 53.7813 11.296 53.28 10.464C52.7787 9.632 52.0053 9.216 50.96 9.216C50.256 9.216 49.5893 9.33867 48.96 9.584C48.3307 9.82933 47.7867 10.2027 47.328 10.704C46.8693 11.2053 46.5067 11.8347 46.24 12.592C45.9733 13.3493 45.84 14.24 45.84 15.264V22.656H43.92V12.032L43.9149 11.671C43.9115 11.5413 43.9063 11.4022 43.8995 11.2538L43.86 10.428L43.84 9.824C43.8329 9.55378 43.8234 9.29541 43.8116 9.04889L43.7715 8.304C43.7638 8.1312 43.76 7.9872 43.76 7.872H45.68L45.7156 8.95289L45.728 9.472C45.7387 9.984 45.7653 10.3147 45.808 10.464H45.904C46.288 9.65333 46.928 8.95467 47.824 8.368C48.72 7.78133 49.7653 7.488 50.96 7.488C51.9413 7.488 52.8373 7.73866 53.648 8.24C54.4587 8.74134 55.0453 9.55733 55.408 10.688C55.8773 9.57866 56.576 8.768 57.504 8.256C58.432 7.744 59.408 7.488 60.432 7.488ZM77.728 9.216C76.6827 9.216 75.8133 9.42933 75.12 9.856C74.4267 10.2827 73.8773 10.7733 73.472 11.328C73.0667 11.8827 72.7787 12.4213 72.608 12.944C72.4373 13.4667 72.352 13.824 72.352 14.016H82.848C82.848 13.3547 82.7147 12.736 82.448 12.16C82.1813 11.584 81.8187 11.0773 81.36 10.64C80.9013 10.2027 80.3573 9.856 79.728 9.6C79.0987 9.344 78.432 9.216 77.728 9.216Z" fill="#17212F"/>
<path d="M23.5 23C28.1944 23 32 19.1944 32 14.5C32 9.80558 28.1944 6 23.5 6C18.8056 6 15 9.80558 15 14.5C15 19.1944 18.8056 23 23.5 23Z" fill="#46C987"/>
<path fill-rule="evenodd" clip-rule="evenodd" d="M18.6311 9.81383L20.1456 8.63367L23.7478 13.2563L28.1182 10.7807L29.0645 12.4513L23.9734 15.3351C23.9734 15.3352 23.9731 15.3353 23.4999 14.5L22.7427 15.0901L18.6311 9.81383ZM23.4999 14.5L22.7427 15.0901C23.0353 15.4656 23.5592 15.5698 23.9734 15.3351L23.4999 14.5Z" fill="white"/>
<path d="M23.5 23C28.1944 23 32 19.1944 32 14.5C32 9.80558 28.1944 6 23.5 6C18.8056 6 15 9.80558 15 14.5C15 19.1944 18.8056 23 23.5 23Z" fill="url(#paint0_linear)"/>
<path fill-rule="evenodd" clip-rule="evenodd" d="M18.6311 9.81383L20.1456 8.63367L23.7478 13.2563L28.1182 10.7807L29.0645 12.4513L23.9734 15.3351C23.9734 15.3352 23.9731 15.3353 23.4999 14.5L22.7427 15.0901L18.6311 9.81383ZM23.4999 14.5L22.7427 15.0901C23.0353 15.4656 23.5592 15.5698 23.9734 15.3351L23.4999 14.5Z" fill="white"/>
<path d="M38.42 2H36.5V3.92H38.42V2Z" fill="#17212F"/>
<path d="M7.744 1.92H0V0H17.6V1.92H9.856V22.656H7.744V1.92ZM36.5 8H38.42V22.784H36.5V8ZM77.824 7.488C78.9547 7.488 79.952 7.68533 80.816 8.08C81.68 8.47467 82.4053 8.99733 82.992 9.648C83.5787 10.2987 84.0213 11.04 84.32 11.872C84.6187 12.704 84.768 13.5467 84.768 14.4V15.744H72.352C72.352 16.1493 72.432 16.6667 72.592 17.296C72.752 17.9253 73.0453 18.5387 73.472 19.136C73.8987 19.7333 74.4693 20.2453 75.184 20.672C75.8987 21.0987 76.8213 21.312 77.952 21.312C78.9333 21.312 79.8827 21.0773 80.8 20.608C81.7173 20.1387 82.4213 19.4987 82.912 18.688L84.32 19.872C83.5733 21.0027 82.6507 21.8133 81.552 22.304C80.4533 22.7947 79.2427 23.04 77.92 23.04C76.7893 23.04 75.7653 22.848 74.848 22.464C73.9307 22.08 73.1413 21.5413 72.48 20.848C71.8187 20.1547 71.312 19.3333 70.96 18.384C70.608 17.4347 70.432 16.384 70.432 15.232C70.432 14.1227 70.6133 13.0987 70.976 12.16C71.3387 11.2213 71.8507 10.4053 72.512 9.712C73.1733 9.01866 73.952 8.47467 74.848 8.08C75.744 7.68533 76.736 7.488 77.824 7.488ZM60.432 7.488C61.584 7.488 62.5227 7.66933 63.248 8.032C63.9733 8.39467 64.544 8.86933 64.96 9.456C65.376 10.0427 65.664 10.72 65.824 11.488C65.984 12.256 66.064 13.0453 66.064 13.856V22.656H64.144V13.952C64.144 13.3547 64.0907 12.7733 63.984 12.208C63.8773 11.6427 63.6907 11.136 63.424 10.688C63.1573 10.24 62.784 9.88267 62.304 9.616C61.824 9.34933 61.2 9.216 60.432 9.216C59.536 9.216 58.8 9.38133 58.224 9.712C57.648 10.0427 57.1947 10.464 56.864 10.976C56.5333 11.488 56.2987 12.0427 56.16 12.64C56.0213 13.2373 55.952 13.8027 55.952 14.336V22.656H54.032V13.76C54.032 12.3947 53.7813 11.296 53.28 10.464C52.7787 9.632 52.0053 9.216 50.96 9.216C50.256 9.216 49.5893 9.33867 48.96 9.584C48.3307 9.82933 47.7867 10.2027 47.328 10.704C46.8693 11.2053 46.5067 11.8347 46.24 12.592C45.9733 13.3493 45.84 14.24 45.84 15.264V22.656H43.92V12.032L43.9149 11.671C43.9115 11.5413 43.9063 11.4022 43.8995 11.2538L43.86 10.428L43.84 9.824C43.8329 9.55378 43.8234 9.29541 43.8116 9.04889L43.7715 8.304C43.7638 8.1312 43.76 7.9872 43.76 7.872H45.68L45.7156 8.95289L45.728 9.472C45.7387 9.984 45.7653 10.3147 45.808 10.464H45.904C46.288 9.65333 46.928 8.95467 47.824 8.368C48.72 7.78133 49.7653 7.488 50.96 7.488C51.9413 7.488 52.8373 7.73866 53.648 8.24C54.4587 8.74134 55.0453 9.55733 55.408 10.688C55.8773 9.57866 56.576 8.768 57.504 8.256C58.432 7.744 59.408 7.488 60.432 7.488ZM77.728 9.216C76.6827 9.216 75.8133 9.42933 75.12 9.856C74.4267 10.2827 73.8773 10.7733 73.472 11.328C73.0667 11.8827 72.7787 12.4213 72.608 12.944C72.4373 13.4667 72.352 13.824 72.352 14.016H82.848C82.848 13.3547 82.7147 12.736 82.448 12.16C82.1813 11.584 81.8187 11.0773 81.36 10.64C80.9013 10.2027 80.3573 9.856 79.728 9.6C79.0987 9.344 78.432 9.216 77.728 9.216Z" fill="#17212F"/>
<path d="M23.5 23C28.1944 23 32 19.1944 32 14.5C32 9.80558 28.1944 6 23.5 6C18.8056 6 15 9.80558 15 14.5C15 19.1944 18.8056 23 23.5 23Z" fill="#46C987"/>
<path fill-rule="evenodd" clip-rule="evenodd" d="M18.6311 9.81383L20.1456 8.63367L23.7478 13.2563L28.1182 10.7807L29.0645 12.4513L23.9734 15.3351C23.9734 15.3352 23.9731 15.3353 23.4999 14.5L22.7427 15.0901L18.6311 9.81383ZM23.4999 14.5L22.7427 15.0901C23.0353 15.4656 23.5592 15.5698 23.9734 15.3351L23.4999 14.5Z" fill="white"/>
<path d="M23.5 23C28.1944 23 32 19.1944 32 14.5C32 9.80558 28.1944 6 23.5 6C18.8056 6 15 9.80558 15 14.5C15 19.1944 18.8056 23 23.5 23Z" fill="url(#paint1_linear)"/>
<path fill-rule="evenodd" clip-rule="evenodd" d="M18.6311 10.8138L20.1456 9.63367L23.7478 14.2563L28.1182 11.7807L29.0645 13.4513L23.9734 16.3351C23.9734 16.3352 23.9731 16.3353 23.4999 15.5L22.7427 16.0901L18.6311 10.8138ZM23.4999 15.5L22.7427 16.0901C23.0353 16.4656 23.5592 16.5698 23.9734 16.3351L23.4999 15.5Z" fill="white"/>
<path d="M38.42 2H36.5V3.92H38.42V2Z" fill="#17212F"/>
<defs>
<linearGradient id="paint0_linear" x1="32" y1="6" x2="17.8981" y2="20.1019" gradientUnits="userSpaceOnUse">
<stop stop-color="#08B3E3"/>
<stop offset="1" stop-color="#8BCCA4"/>
</linearGradient>
<linearGradient id="paint1_linear" x1="32" y1="6" x2="15" y2="23" gradientUnits="userSpaceOnUse">
<stop stop-color="#08B3E3"/>
<stop offset="1" stop-color="#8BCCA4"/>
</linearGradient>
</defs>
</svg>
